<!DOCTYPE svg PUBLIC "-//W3C//DTD SVG 1.1//EN" "http://www.w3.org/Graphics/SVG/1.1/DTD/svg11.dtd">
<!-- Uploaded to: SVG Repo, www.svgrepo.com, Transformed by: SVG Repo Mixer Tools -->
<svg fill="#e6e6e6" height="800px" width="800px" version="1.1" id="Layer_1" xmlns="http://www.w3.org/2000/svg" xmlns:xlink="http://www.w3.org/1999/xlink" viewBox="-51.24 -51.24 614.87 614.87" xml:space="preserve" stroke="#e6e6e6">
<g id="SVGRepo_bgCarrier" stroke-width="0"/>
<g id="SVGRepo_tracerCarrier" stroke-linecap="round" stroke-linejoin="round"/>
<g id="SVGRepo_iconCarrier"> <g transform="translate(-1)"> <g> <g> <path d="M342.517,149.53c-11.782,0-21.333,9.551-21.333,21.333v21.333h-128v-21.333c0-11.782-9.551-21.333-21.333-21.333 c-11.782,0-21.333,9.551-21.333,21.333v85.333c0,11.782,9.551,21.333,21.333,21.333c11.782,0,21.333-9.551,21.333-21.333v-21.333 h128v21.333c0,11.782,9.551,21.333,21.333,21.333c11.782,0,21.333-9.551,21.333-21.333v-85.333 C363.851,159.081,354.3,149.53,342.517,149.53z"/> <path d="M476.366,76.883c-33.935-35.416-72.099-55.355-115.427-55.355c-41.678,0-78.831,21.529-103.937,55.995 c-24.925-34.546-61.639-55.995-103.274-55.995c-43.039,0-80.572,19.732-115.259,55.181 c-52.122,53.311-52.315,152.079,14.922,217.668c13.01,12.687,45.396,45.185,91.085,91.311 c21.941,22.151,44.681,45.152,67.393,68.152c7.949,8.05,15.327,15.526,21.946,22.234c6.806,6.9,6.806,6.9,8.316,8.431 c8.355,8.474,22.027,8.474,30.382,0.001c1.51-1.532,1.51-1.532,8.317-8.431c6.619-6.708,13.998-14.184,21.949-22.234 c22.715-23.001,45.458-46.001,66.722-67.466c46.374-46.811,78.764-79.31,91.772-91.996 C528.257,229.037,527.781,130.633,476.366,76.883z M431.482,263.835c-13.261,12.932-45.698,45.478-91.615,91.828 c-21.959,22.167-44.716,45.182-67.446,68.197c-5.305,5.372-10.357,10.488-15.098,15.292c-4.74-4.803-9.79-9.919-15.095-15.291 c-22.726-23.015-45.481-46.03-66.759-67.513c-46.591-47.035-79.024-79.58-92.287-92.515 c-50.162-48.933-50.022-120.663-14.211-157.29c27.342-27.943,54.744-42.349,84.757-42.349c35.729,0,67.329,25.299,83.42,65.286 c7.173,17.826,32.409,17.826,39.582,0c15.986-39.728,48.268-65.286,84.209-65.286c30.303,0,58.086,14.515,84.607,42.194 C481.057,143.513,481.404,215.137,431.482,263.835z"/> </g> </g> </g> </g>
</svg>