<!DOCTYPE svg PUBLIC "-//W3C//DTD SVG 1.1//EN" "http://www.w3.org/Graphics/SVG/1.1/DTD/svg11.dtd">
<!-- Uploaded to: SVG Repo, www.svgrepo.com, Transformed by: SVG Repo Mixer Tools -->
<svg fill="#eeeded" height="95px" width="95px" version="1.1" id="Layer_1" xmlns="http://www.w3.org/2000/svg" xmlns:xlink="http://www.w3.org/1999/xlink" viewBox="0 0 511.346 511.346" xml:space="preserve">
<g id="SVGRepo_bgCarrier" stroke-width="0"/>
<g id="SVGRepo_tracerCarrier" stroke-linecap="round" stroke-linejoin="round"/>
<g id="SVGRepo_iconCarrier"> <g> <g> <path d="M478.74,32.599c-43.465-43.465-113.946-43.465-157.411,0c-0.089,0.089-0.173,0.18-0.262,0.268l-109.92,109.92 l-15.732-15.732c-8.693-8.693-22.788-8.693-31.482,0L6.527,284.463c-8.693,8.693-8.693,22.788,0,31.482l62.954,62.954 c8.693,8.693,22.788,8.693,31.482,0l157.407-157.407c8.693-8.693,8.693-22.788,0-31.482l-15.74-15.741l47.217-47.217 c3.274,23.035,13.766,45.241,31.483,62.958c17.718,17.718,39.927,28.211,62.964,31.484l-47.221,47.221l-15.732-15.732 c-8.693-8.693-22.788-8.693-31.482,0L132.452,410.39c-8.693,8.693-8.693,22.788,0,31.482l62.954,62.954 c8.693,8.693,22.788,8.693,31.482,0l157.407-157.407c8.693-8.693,8.693-22.788,0-31.482l-15.741-15.741l110.191-110.191 c0,0,0.001-0.001,0.001-0.002C522.205,146.539,522.203,76.062,478.74,32.599z M85.221,331.676l-31.472-31.472l125.925-125.925 l31.472,31.472L85.221,331.676z M211.147,457.603l-31.472-31.472l125.925-125.925l31.472,31.472L211.147,457.603z M352.81,158.528 c-26.034-26.034-26.074-68.223-0.129-94.312l0.136-0.136c0.015-0.015,0.026-0.031,0.041-0.045 c26.082-26.031,68.338-26.017,94.4,0.045c26.078,26.078,26.078,68.37,0,94.448S378.889,184.606,352.81,158.528z"/> </g> </g> </g>
</svg>