<!DOCTYPE svg PUBLIC "-//W3C//DTD SVG 1.1//EN" "http://www.w3.org/Graphics/SVG/1.1/DTD/svg11.dtd">
<!-- Uploaded to: SVG Repo, www.svgrepo.com, Transformed by: SVG Repo Mixer Tools -->
<svg fill="#faebd7" height="79px" width="79px" version="1.1" id="Layer_1" xmlns="http://www.w3.org/2000/svg" xmlns:xlink="http://www.w3.org/1999/xlink" viewBox="0 0 503.608 503.608" xml:space="preserve" stroke="#faebd7">
<g id="SVGRepo_bgCarrier" stroke-width="0"/>
<g id="SVGRepo_tracerCarrier" stroke-linecap="round" stroke-linejoin="round"/>
<g id="SVGRepo_iconCarrier"> <g transform="translate(-1)"> <g> <g> <path d="M479.427,302.164h-16.93C459.476,134.799,366.611,0,252.804,0S46.132,134.799,43.111,302.164h-16.93 c-13.883,0-25.18,11.298-25.18,25.18c0,10.937,7.042,20.169,16.804,23.636l0.05,26.725h67.013l0.05-26.725 c9.762-3.466,16.804-12.699,16.804-23.636c0-13.883-11.298-25.18-25.18-25.18H59.898C61.87,195.71,101.21,103.281,158.655,54.23 c-9.451,16.149-14.966,34.866-14.966,54.885c0,60.164,48.951,109.115,109.115,109.115s109.115-48.951,109.115-109.115 c0-20.018-5.515-38.736-14.966-54.885c57.445,49.051,96.785,141.48,98.757,247.934h-16.644c-13.883,0-25.18,11.298-25.18,25.18 c0,10.937,7.042,20.169,16.804,23.636l0.05,26.725h67.013l0.05-26.725c9.762-3.466,16.804-12.699,16.804-23.636 C504.607,313.461,493.31,302.164,479.427,302.164z M252.804,201.443c-50.906,0-92.328-41.422-92.328-92.328 c0-50.906,41.422-92.328,92.328-92.328c50.906,0,92.328,41.422,92.328,92.328C345.132,160.021,303.71,201.443,252.804,201.443z"/> <polygon points="17.985,444.852 84.738,444.852 84.839,394.492 17.884,394.492 "/> <path d="M18.05,478.688c0,13.74,11.18,24.92,24.92,24.92h16.787c13.732,0,24.912-11.18,24.912-24.903l0.034-17.064H18.017 L18.05,478.688z"/> <polygon points="420.87,444.852 487.623,444.852 487.724,394.492 420.77,394.492 "/> <path d="M420.936,478.688c0,13.74,11.18,24.92,24.92,24.92h16.787c13.732,0,24.912-11.18,24.912-24.903l0.034-17.064h-66.686 L420.936,478.688z"/> </g> </g> </g> </g>
</svg>